{"accessors":[{"bufferView":2,"componentType":5126,"count":21940,"max":[46.447021484375,45.521419525146484,102.2320785522461],"min":[-53.4310188293457,-57.724971771240234,-1.4102684259414673],"type":"VEC3"},{"bufferView":2,"byteOffset":263280,"componentType":5126,"count":21940,"max":[0.9999711513519287,0.9998881816864014,0.999718427658081],"min":[-0.9999858140945435,-0.9998565912246704,-0.999994158744812],"type":"VEC3"},{"bufferView":1,"componentType":5126,"count":21940,"max":[0.9745625853538513,0.999500036239624],"min":[0.0005000000237487257,0.0005000000237487257],"type":"VEC2"},{"bufferView":0,"componentType":5125,"count":127242,"type":"SCALAR"}],"asset":{"extras":{"author":"Segrei Vas (https://sketchfab.com/letsrock85)","license":"CC-BY-4.0 (http://creativecommons.org/licenses/by/4.0/)","source":"https://sketchfab.com/3d-models/a-cupcake-with-mms-on-top-914eb8ffafc04db48f45da88093e0a68","title":"A Cupcake with M&M's on top"},"generator":"Sketchfab-12.68.0","version":"2.0"},"bufferViews":[{"buffer":0,"byteLength":508968,"name":"floatBufferViews","target":34963},{"buffer":0,"byteLength":175520,"byteOffset":508968,"byteStride":8,"name":"floatBufferViews","target":34962},{"buffer":0,"byteLength":526560,"byteOffset":684488,"byteStride":12,"name":"floatBufferViews","target":34962}],"buffers":[{"byteLength":1211048,"uri":"data:application/octet-stream;base64,"}],"extensionsUsed":["KHR_materials_unlit"],"images":[{"uri":"data:application/octet-stream;base64,"}],"materials":[{"doubleSided":true,"extensions":{"KHR_materials_unlit":{}},"name":"Default_Material","pbrMetallicRoughness":{"baseColorTexture":{"index":0},"metallicFactor":0}}],"meshes":[{"name":"cake_Retopo_Default Material_0","primitives":[{"attributes":{"NORMAL":1,"POSITION":0,"TEXCOORD_0":2},"indices":3,"material":0,"mode":4}]}],"nodes":[{"children":[1],"matrix":[1,0,0,0,0,2.220446049250313e-16,-1,0,0,1,2.220446049250313e-16,0,0,0,0,1],"name":"Sketchfab_model"},{"children":[2],"matrix":[1,0,0,0,0,0,1,0,0,-1,0,0,0,0,0,1],"name":"8529ef524f004b69923cfa59c098e7b9.fbx"},{"children":[3],"name":"RootNode"},{"children":[4],"matrix":[1,0,0,0,0,2.220446049250313e-16,-1,0,0,1,2.220446049250313e-16,0,0,0,0,1],"name":"cake_Retopo"},{"mesh":0,"name":"cake_Retopo_Default Material_0"}],"samplers":[{"magFilter":9729,"minFilter":9987,"wrapS":10497,"wrapT":10497}],"scene":0,"scenes":[{"name":"Sketchfab_Scene","nodes":[0]}],"textures":[{"sampler":0,"source":0}]}